<?xml version="1.0" encoding="UTF-8"?>
<svg width="1200pt" height="1200pt" version="1.1" viewBox="0 0 1200 1200" xmlns="http://www.w3.org/2000/svg">
 <path d="m600 1198.8c330.82 0 600-268.61 600-598.8s-269.18-598.8-600-598.8-600 268.61-600 598.8 269.18 598.8 600 598.8zm106.01-85.762c35.211-41.211 78.676-98.062 118.73-166.69 59.023 10.051 106.84 21.711 138.94 30.562-70.164 67.387-158.74 115.8-257.66 136.12zm312.64-198.27c-25.574-8.1758-80.961-24.488-156.71-38.773 35.586-74.25 63.789-158.02 72.676-247.88h188.96c-5.7383 107.29-43.836 205.95-104.93 286.65zm103.99-361.69h-185.74c-2.3984-92.211-24.938-174.75-56.738-246.11 42.449-8.9609 85.352-20.773 128.25-35.398 63.488 78.488 104.7 175.46 114.23 281.51zm-171.79-341.62c-35.438 10.688-70.914 19.199-106.09 25.836-33-57.074-69.898-104.51-102.86-141.15 78.746 22.164 149.81 62.102 208.95 115.31zm-313.35-114.19c31.801 29.812 81.227 81.898 126.04 152.36-43.051 4.9141-85.277 7.3867-126.04 7.9141zm0 235.91c53.211-0.75 108.86-4.6484 165.86-12.789 32.398 66.938 55.836 145.46 58.5 232.69h-224.36zm0 294.9h221.62c-9.7109 85.051-39.188 164.96-75.262 235.24-44.699-6.1133-93.938-10.762-146.36-12.824zm0 298.39c37.086 1.5742 72.562 4.4609 105.79 8.2891-37.238 59.398-75.977 108.15-105.79 142.24zm-402.52 49.199c40.426-12.824 80.887-22.727 121.01-30.262 38.102 65.477 79.5 120.6 113.85 161.44-89.738-22.988-170.29-68.703-234.86-131.18zm327.52 122.25c-30.938-33.523-79.5-91.012-125.55-164.74 42.863-4.875 84.898-7.3516 125.55-7.875zm0-248.36c-53.176 0.75-108.71 4.5391-165.68 12.676-35.812-70.012-65.023-149.51-74.699-234.11h240.38zm0-296.48h-243.11c2.7383-89.961 27.75-170.51 61.727-238.8 53.551 8.5508 114.79 15.453 181.39 18.078zm0-472.91v176.21c-50.625-2.1367-98.137-6.7891-141.15-12.789 54.148-83.359 114.41-140.21 141.15-163.42zm-130.24 23.926c-29.699 33.824-61.949 76.273-91.5 126.11-35.551-6.9023-65.961-14.066-89.848-20.328 52.234-46.574 113.62-82.91 181.35-105.79zm-240.49 167.25c23.586 7.2383 62.176 18.074 112.31 28.727-33.414 72.898-57.262 157.88-59.738 253.05l-166.98-0.003906c9.5234-106.2 50.812-203.29 114.41-281.77zm54.863 356.73c8.8867 89.852 37.051 173.59 72.637 247.84-45.676 9.6758-91.836 22.461-138 38.738-61.086-80.699-99.113-179.29-104.85-286.57z" fill="#595959"/>
</svg>
